<svg width="100" height="113" viewBox="0 0 100 113" fill="none" xmlns="http://www.w3.org/2000/svg">
<path d="M89.3513 36.8246C89.4047 57.0805 89.458 45.8926 89.5063 66.1485C80.3557 59.4595 63.4355 61.1615 59.2528 72.6363C56.6182 79.8623 58.4556 88.1816 64.0658 93.2893C70.0376 98.7311 79.4689 98.6296 86.6409 96.2367C93.3756 93.9872 98.8359 87.9821 99.864 80.8401C99.9397 80.3486 99.9604 79.8431 100 79.3358C99.9656 52.5431 99.9914 24.5032 99.9983 0.463745L31.913 18.701C31.7115 18.8321 31.5473 19.0144 31.4364 19.2297C31.3256 19.4451 31.272 19.6861 31.281 19.929L31.4429 80.6897C22.294 73.9989 5.37213 75.6992 1.18256 87.1723C-1.45379 94.4035 0.388725 102.718 6.00237 107.83C11.9725 113.272 21.4037 113.167 28.5775 110.776C35.3139 108.527 40.7657 102.52 41.8023 95.3796C41.8763 94.888 41.8901 94.3808 41.9297 93.8787V85.1327C41.9142 72.9022 41.9056 60.2799 41.9297 49.956L89.3513 36.8246Z" fill="#4574D2"/>
</svg>
