<svg width="155" height="39" viewBox="0 0 155 39" fill="none" xmlns="http://www.w3.org/2000/svg">
<g filter="url(#filter0_ddi)">
<path d="M15 1.92C17.96 1.92 20.5467 2.50667 22.76 3.68C24.9733 4.85333 26.68 6.50667 27.88 8.64C29.1067 10.7467 29.72 13.1867 29.72 15.96C29.72 18.7067 29.1067 21.1467 27.88 23.28C26.68 25.4133 24.96 27.0667 22.72 28.24C20.5067 29.4133 17.9333 30 15 30H4.48V1.92H15ZM14.56 24.08C17.1467 24.08 19.16 23.3733 20.6 21.96C22.04 20.5467 22.76 18.5467 22.76 15.96C22.76 13.3733 22.04 11.36 20.6 9.92C19.16 8.48 17.1467 7.76 14.56 7.76H11.32V24.08H14.56ZM32.1825 18.8C32.1825 16.5067 32.6092 14.4933 33.4625 12.76C34.3425 11.0267 35.5292 9.69333 37.0225 8.76C38.5158 7.82667 40.1825 7.36 42.0225 7.36C43.5958 7.36 44.9692 7.68 46.1425 8.32C47.3425 8.96 48.2625 9.8 48.9025 10.84V7.68H55.7425V30H48.9025V26.84C48.2358 27.88 47.3025 28.72 46.1025 29.36C44.9292 30 43.5558 30.32 41.9825 30.32C40.1692 30.32 38.5158 29.8533 37.0225 28.92C35.5292 27.96 34.3425 26.6133 33.4625 24.88C32.6092 23.12 32.1825 21.0933 32.1825 18.8ZM48.9025 18.84C48.9025 17.1333 48.4225 15.7867 47.4625 14.8C46.5292 13.8133 45.3825 13.32 44.0225 13.32C42.6625 13.32 41.5025 13.8133 40.5425 14.8C39.6092 15.76 39.1425 17.0933 39.1425 18.8C39.1425 20.5067 39.6092 21.8667 40.5425 22.88C41.5025 23.8667 42.6625 24.36 44.0225 24.36C45.3825 24.36 46.5292 23.8667 47.4625 22.88C48.4225 21.8933 48.9025 20.5467 48.9025 18.84ZM67.0909 24.36H76.7709V30H59.4509V24.56L68.7309 13.32H59.5309V7.68H76.5709V13.12L67.0909 24.36ZM86.9347 24.36H96.6147V30H79.2947V24.56L88.5747 13.32H79.3747V7.68H96.4147V13.12L86.9347 24.36ZM107.218 0.4V30H100.378V0.4H107.218ZM133.215 18.48C133.215 19.12 133.175 19.7867 133.095 20.48H117.615C117.722 21.8667 118.162 22.9333 118.935 23.68C119.735 24.4 120.709 24.76 121.855 24.76C123.562 24.76 124.749 24.04 125.415 22.6H132.695C132.322 24.0667 131.642 25.3867 130.655 26.56C129.695 27.7333 128.482 28.6533 127.015 29.32C125.549 29.9867 123.909 30.32 122.095 30.32C119.909 30.32 117.962 29.8533 116.255 28.92C114.549 27.9867 113.215 26.6533 112.255 24.92C111.295 23.1867 110.815 21.16 110.815 18.84C110.815 16.52 111.282 14.4933 112.215 12.76C113.175 11.0267 114.509 9.69333 116.215 8.76C117.922 7.82667 119.882 7.36 122.095 7.36C124.255 7.36 126.175 7.81333 127.855 8.72C129.535 9.62667 130.842 10.92 131.775 12.6C132.735 14.28 133.215 16.24 133.215 18.48ZM126.215 16.68C126.215 15.5067 125.815 14.5733 125.015 13.88C124.215 13.1867 123.215 12.84 122.015 12.84C120.869 12.84 119.895 13.1733 119.095 13.84C118.322 14.5067 117.842 15.4533 117.655 16.68H126.215ZM143.664 11.4C144.464 10.1733 145.464 9.21333 146.664 8.52C147.864 7.8 149.197 7.44 150.664 7.44V14.68H148.784C147.077 14.68 145.797 15.0533 144.944 15.8C144.09 16.52 143.664 17.8 143.664 19.64V30H136.824V7.68H143.664V11.4Z" fill="#4574D2"/>
</g>
<defs>
<filter id="filter0_ddi" x="0.47998" y="0.399994" width="154.184" height="37.92" filterUnits="userSpaceOnUse" color-interpolation-filters="sRGB">
<feFlood flood-opacity="0" result="BackgroundImageFix"/>
<feColorMatrix in="SourceAlpha" type="matrix" values="0 0 0 0 0 0 0 0 0 0 0 0 0 0 0 0 0 0 127 0"/>
<feOffset dy="4"/>
<feGaussianBlur stdDeviation="2"/>
<feColorMatrix type="matrix" values="0 0 0 0 0 0 0 0 0 0 0 0 0 0 0 0 0 0 0.25 0"/>
<feBlend mode="normal" in2="BackgroundImageFix" result="effect1_dropShadow"/>
<feColorMatrix in="SourceAlpha" type="matrix" values="0 0 0 0 0 0 0 0 0 0 0 0 0 0 0 0 0 0 127 0"/>
<feOffset dy="4"/>
<feGaussianBlur stdDeviation="2"/>
<feColorMatrix type="matrix" values="0 0 0 0 0 0 0 0 0 0 0 0 0 0 0 0 0 0 0.25 0"/>
<feBlend mode="normal" in2="effect1_dropShadow" result="effect2_dropShadow"/>
<feBlend mode="normal" in="SourceGraphic" in2="effect2_dropShadow" result="shape"/>
<feColorMatrix in="SourceAlpha" type="matrix" values="0 0 0 0 0 0 0 0 0 0 0 0 0 0 0 0 0 0 127 0" result="hardAlpha"/>
<feOffset dy="4"/>
<feGaussianBlur stdDeviation="2"/>
<feComposite in2="hardAlpha" operator="arithmetic" k2="-1" k3="1"/>
<feColorMatrix type="matrix" values="0 0 0 0 1 0 0 0 0 1 0 0 0 0 1 0 0 0 0.25 0"/>
<feBlend mode="normal" in2="shape" result="effect3_innerShadow"/>
</filter>
</defs>
</svg>
