<svg width="119" height="32" viewBox="0 0 119 32" fill="none" xmlns="http://www.w3.org/2000/svg">
<g filter="url(#filter0_ddi)">
<path d="M12.75 1.91998C14.97 1.91998 16.91 2.35998 18.57 3.23998C20.23 4.11998 21.51 5.35998 22.41 6.95998C23.33 8.53998 23.79 10.37 23.79 12.45C23.79 14.51 23.33 16.34 22.41 17.94C21.51 19.54 20.22 20.78 18.54 21.66C16.88 22.54 14.95 22.98 12.75 22.98H4.86V1.91998H12.75ZM12.42 18.54C14.36 18.54 15.87 18.01 16.95 16.95C18.03 15.89 18.57 14.39 18.57 12.45C18.57 10.51 18.03 8.99998 16.95 7.91998C15.87 6.83998 14.36 6.29998 12.42 6.29998H9.99V18.54H12.42ZM25.6369 14.58C25.6369 12.86 25.9569 11.35 26.5969 10.05C27.2569 8.74998 28.1469 7.74998 29.2669 7.04998C30.3869 6.34998 31.6369 5.99998 33.0169 5.99998C34.1969 5.99998 35.2269 6.23998 36.1069 6.71998C37.0069 7.19998 37.6969 7.82998 38.1769 8.60998V6.23998H43.3069V22.98H38.1769V20.61C37.6769 21.39 36.9769 22.02 36.0769 22.5C35.1969 22.98 34.1669 23.22 32.9869 23.22C31.6269 23.22 30.3869 22.87 29.2669 22.17C28.1469 21.45 27.2569 20.44 26.5969 19.14C25.9569 17.82 25.6369 16.3 25.6369 14.58ZM38.1769 14.61C38.1769 13.33 37.8169 12.32 37.0969 11.58C36.3969 10.84 35.5369 10.47 34.5169 10.47C33.4969 10.47 32.6269 10.84 31.9069 11.58C31.2069 12.3 30.8569 13.3 30.8569 14.58C30.8569 15.86 31.2069 16.88 31.9069 17.64C32.6269 18.38 33.4969 18.75 34.5169 18.75C35.5369 18.75 36.3969 18.38 37.0969 17.64C37.8169 16.9 38.1769 15.89 38.1769 14.61ZM51.8182 18.75H59.0782V22.98H46.0882V18.9L53.0482 10.47H46.1482V6.23998H58.9282V10.32L51.8182 18.75ZM66.701 18.75H73.961V22.98H60.971V18.9L67.931 10.47H61.031V6.23998H73.811V10.32L66.701 18.75ZM81.9138 0.77998V22.98H76.7838V0.77998H81.9138ZM101.411 14.34C101.411 14.82 101.381 15.32 101.321 15.84H89.7115C89.7915 16.88 90.1215 17.68 90.7015 18.24C91.3015 18.78 92.0315 19.05 92.8915 19.05C94.1715 19.05 95.0615 18.51 95.5615 17.43H101.021C100.741 18.53 100.231 19.52 99.4915 20.4C98.7715 21.28 97.8615 21.97 96.7615 22.47C95.6615 22.97 94.4315 23.22 93.0715 23.22C91.4315 23.22 89.9715 22.87 88.6915 22.17C87.4115 21.47 86.4115 20.47 85.6915 19.17C84.9715 17.87 84.6115 16.35 84.6115 14.61C84.6115 12.87 84.9615 11.35 85.6615 10.05C86.3815 8.74998 87.3815 7.74998 88.6615 7.04998C89.9415 6.34998 91.4115 5.99998 93.0715 5.99998C94.6915 5.99998 96.1315 6.33998 97.3915 7.01998C98.6515 7.69998 99.6315 8.66998 100.331 9.92998C101.051 11.19 101.411 12.66 101.411 14.34ZM96.1615 12.99C96.1615 12.11 95.8615 11.41 95.2615 10.89C94.6615 10.37 93.9115 10.11 93.0115 10.11C92.1515 10.11 91.4215 10.36 90.8215 10.86C90.2415 11.36 89.8815 12.07 89.7415 12.99H96.1615ZM109.248 9.02998C109.848 8.10998 110.598 7.38998 111.498 6.86998C112.398 6.32998 113.398 6.05998 114.498 6.05998V11.49H113.088C111.808 11.49 110.848 11.77 110.208 12.33C109.568 12.87 109.248 13.83 109.248 15.21V22.98H104.118V6.23998H109.248V9.02998Z" fill="#AE22C5"/>
</g>
<defs>
<filter id="filter0_ddi" x="0.860001" y="0.780029" width="117.638" height="30.44" filterUnits="userSpaceOnUse" color-interpolation-filters="sRGB">
<feFlood flood-opacity="0" result="BackgroundImageFix"/>
<feColorMatrix in="SourceAlpha" type="matrix" values="0 0 0 0 0 0 0 0 0 0 0 0 0 0 0 0 0 0 127 0"/>
<feOffset dy="4"/>
<feGaussianBlur stdDeviation="2"/>
<feColorMatrix type="matrix" values="0 0 0 0 0 0 0 0 0 0 0 0 0 0 0 0 0 0 0.25 0"/>
<feBlend mode="normal" in2="BackgroundImageFix" result="effect1_dropShadow"/>
<feColorMatrix in="SourceAlpha" type="matrix" values="0 0 0 0 0 0 0 0 0 0 0 0 0 0 0 0 0 0 127 0"/>
<feOffset dy="4"/>
<feGaussianBlur stdDeviation="2"/>
<feColorMatrix type="matrix" values="0 0 0 0 0 0 0 0 0 0 0 0 0 0 0 0 0 0 0.25 0"/>
<feBlend mode="normal" in2="effect1_dropShadow" result="effect2_dropShadow"/>
<feBlend mode="normal" in="SourceGraphic" in2="effect2_dropShadow" result="shape"/>
<feColorMatrix in="SourceAlpha" type="matrix" values="0 0 0 0 0 0 0 0 0 0 0 0 0 0 0 0 0 0 127 0" result="hardAlpha"/>
<feOffset dy="4"/>
<feGaussianBlur stdDeviation="2"/>
<feComposite in2="hardAlpha" operator="arithmetic" k2="-1" k3="1"/>
<feColorMatrix type="matrix" values="0 0 0 0 1 0 0 0 0 1 0 0 0 0 1 0 0 0 0.25 0"/>
<feBlend mode="normal" in2="shape" result="effect3_innerShadow"/>
</filter>
</defs>
</svg>
