<svg width="40" height="40" viewBox="0 0 40 40" fill="none" xmlns="http://www.w3.org/2000/svg">
<circle cx="20" cy="20" r="20" fill="white"/>
<path d="M15.64 23.424V22.32L21.256 14.544H23V22.16H24.6V23.424H23V26H21.56V23.424H15.64ZM21.624 16.064L17.32 22.16H21.624V16.064Z" fill="#4574D2"/>
<path d="M15.64 23.424H14.64V24.424H15.64V23.424ZM15.64 22.32L14.8293 21.7345L14.64 21.9966V22.32H15.64ZM21.256 14.544V13.544H20.7447L20.4453 13.9585L21.256 14.544ZM23 14.544H24V13.544H23V14.544ZM23 22.16H22V23.16H23V22.16ZM24.6 22.16H25.6V21.16H24.6V22.16ZM24.6 23.424V24.424H25.6V23.424H24.6ZM23 23.424V22.424H22V23.424H23ZM23 26V27H24V26H23ZM21.56 26H20.56V27H21.56V26ZM21.56 23.424H22.56V22.424H21.56V23.424ZM21.624 16.064H22.624V12.9138L20.8071 15.4872L21.624 16.064ZM17.32 22.16L16.5031 21.5832L15.3898 23.16H17.32V22.16ZM21.624 22.16V23.16H22.624V22.16H21.624ZM16.64 23.424V22.32H14.64V23.424H16.64ZM16.4507 22.9055L22.0667 15.1295L20.4453 13.9585L14.8293 21.7345L16.4507 22.9055ZM21.256 15.544H23V13.544H21.256V15.544ZM22 14.544V22.16H24V14.544H22ZM23 23.16H24.6V21.16H23V23.16ZM23.6 22.16V23.424H25.6V22.16H23.6ZM24.6 22.424H23V24.424H24.6V22.424ZM22 23.424V26H24V23.424H22ZM23 25H21.56V27H23V25ZM22.56 26V23.424H20.56V26H22.56ZM21.56 22.424H15.64V24.424H21.56V22.424ZM20.8071 15.4872L16.5031 21.5832L18.1369 22.7368L22.4409 16.6408L20.8071 15.4872ZM17.32 23.16H21.624V21.16H17.32V23.16ZM22.624 22.16V16.064H20.624V22.16H22.624Z" fill="#4574D2"/>
</svg>
