<svg width="40" height="40" viewBox="0 0 40 40" fill="none" xmlns="http://www.w3.org/2000/svg">
<circle cx="20" cy="20" r="20" fill="black" fill-opacity="0.5"/>
<path fill-rule="evenodd" clip-rule="evenodd" d="M24 10.0762H16C12.6863 10.0762 10 12.8645 10 16.304V24.6078C10 28.0474 12.6863 30.8357 16 30.8357H24C27.3137 30.8357 30 28.0474 30 24.6078V16.304C30 12.8645 27.3137 10.0762 24 10.0762ZM12 16.304C12 14.011 13.7909 12.1521 16 12.1521H24C26.2091 12.1521 28 14.011 28 16.304V24.6078C28 26.9008 26.2091 28.7597 24 28.7597H16C13.7909 28.7597 12 26.9008 12 24.6078V16.304ZM20 25.6458C17.2386 25.6458 15 23.3222 15 20.4559C15 17.5896 17.2386 15.266 20 15.266C22.7614 15.266 25 17.5896 25 20.4559C25 23.3222 22.7614 25.6458 20 25.6458ZM20 23.5698C21.6569 23.5698 23 22.1757 23 20.4559C23 18.7361 21.6569 17.342 20 17.342C18.3431 17.342 17 18.7361 17 20.4559C17 22.1757 18.3431 23.5698 20 23.5698ZM26 15.266C26 15.8393 25.5523 16.304 25 16.304C24.4477 16.304 24 15.8393 24 15.266C24 14.6928 24.4477 14.2281 25 14.2281C25.5523 14.2281 26 14.6928 26 15.266Z" fill="white"/>
</svg>
