<svg width="40" height="40" viewBox="0 0 40 40" fill="none" xmlns="http://www.w3.org/2000/svg">
<circle cx="20" cy="20" r="20" fill="white"/>
<path d="M17.608 15.76V14.432H20.616V26H19.144V15.76H17.608Z" fill="#4574D2"/>
<path d="M17.608 15.76H16.608V16.76H17.608V15.76ZM17.608 14.432V13.432H16.608V14.432H17.608ZM20.616 14.432H21.616V13.432H20.616V14.432ZM20.616 26V27H21.616V26H20.616ZM19.144 26H18.144V27H19.144V26ZM19.144 15.76H20.144V14.76H19.144V15.76ZM18.608 15.76V14.432H16.608V15.76H18.608ZM17.608 15.432H20.616V13.432H17.608V15.432ZM19.616 14.432V26H21.616V14.432H19.616ZM20.616 25H19.144V27H20.616V25ZM20.144 26V15.76H18.144V26H20.144ZM19.144 14.76H17.608V16.76H19.144V14.76Z" fill="#4574D2"/>
</svg>
