<svg width="40" height="40" viewBox="0 0 40 40" fill="none" xmlns="http://www.w3.org/2000/svg">
<circle cx="20" cy="20" r="20" fill="white"/>
<path d="M15.96 17.344C16.0347 16.3627 16.4133 15.5947 17.096 15.04C17.7787 14.4853 18.664 14.208 19.752 14.208C20.4773 14.208 21.1013 14.3413 21.624 14.608C22.1573 14.864 22.5573 15.216 22.824 15.664C23.1013 16.112 23.24 16.6187 23.24 17.184C23.24 17.8453 23.048 18.416 22.664 18.896C22.2907 19.376 21.8 19.6853 21.192 19.824V19.904C21.8853 20.0747 22.4347 20.4107 22.84 20.912C23.2453 21.4133 23.448 22.0693 23.448 22.88C23.448 23.488 23.3093 24.0373 23.032 24.528C22.7547 25.008 22.3387 25.3867 21.784 25.664C21.2293 25.9413 20.5627 26.08 19.784 26.08C18.6533 26.08 17.7253 25.7867 17 25.2C16.2747 24.6027 15.8693 23.76 15.784 22.672H17.192C17.2667 23.312 17.528 23.8347 17.976 24.24C18.424 24.6453 19.0213 24.848 19.768 24.848C20.5147 24.848 21.08 24.656 21.464 24.272C21.8587 23.8773 22.056 23.3707 22.056 22.752C22.056 21.952 21.7893 21.376 21.256 21.024C20.7227 20.672 19.9173 20.496 18.84 20.496H18.472V19.28H18.856C19.8373 19.2693 20.5787 19.1093 21.08 18.8C21.5813 18.48 21.832 17.9893 21.832 17.328C21.832 16.7627 21.6453 16.3093 21.272 15.968C20.9093 15.6267 20.3867 15.456 19.704 15.456C19.0427 15.456 18.5093 15.6267 18.104 15.968C17.6987 16.3093 17.4587 16.768 17.384 17.344H15.96Z" fill="#4574D2"/>
<path d="M15.96 17.344L14.9629 17.2681L14.881 18.344H15.96V17.344ZM17.096 15.04L16.4654 14.2639H16.4654L17.096 15.04ZM21.624 14.608L21.1695 15.4988L21.1803 15.5043L21.1913 15.5095L21.624 14.608ZM22.824 15.664L21.9647 16.1755L21.9692 16.183L21.9737 16.1904L22.824 15.664ZM22.664 18.896L21.8831 18.2712L21.8746 18.2821L22.664 18.896ZM21.192 19.824L20.9696 18.849L20.192 19.0264V19.824H21.192ZM21.192 19.904H20.192V20.6877L20.953 20.875L21.192 19.904ZM22.84 20.912L23.6176 20.2833L22.84 20.912ZM23.032 24.528L23.8979 25.0283L23.9026 25.0201L23.032 24.528ZM21.784 25.664L22.2312 26.5584L21.784 25.664ZM17 25.2L16.3643 25.972L16.3711 25.9775L17 25.2ZM15.784 22.672V21.672H14.7025L14.7871 22.7502L15.784 22.672ZM17.192 22.672L18.1853 22.5561L18.0821 21.672H17.192V22.672ZM17.976 24.24L17.3051 24.9815L17.976 24.24ZM21.464 24.272L20.7569 23.5649L21.464 24.272ZM21.256 21.024L21.8068 20.1894H21.8068L21.256 21.024ZM18.472 20.496H17.472V21.496H18.472V20.496ZM18.472 19.28V18.28H17.472V19.28H18.472ZM18.856 19.28V20.2801L18.8669 20.2799L18.856 19.28ZM21.08 18.8L21.6051 19.651L21.6116 19.647L21.618 19.6429L21.08 18.8ZM21.272 15.968L20.5866 16.6962L20.5919 16.7012L20.5972 16.706L21.272 15.968ZM17.384 17.344V18.344H18.2627L18.3757 17.4726L17.384 17.344ZM16.9571 17.4199C17.0137 16.6765 17.2835 16.1761 17.7266 15.8161L16.4654 14.2639C15.5432 15.0132 15.0557 16.0489 14.9629 17.2681L16.9571 17.4199ZM17.7266 15.8161C18.1919 15.438 18.8377 15.208 19.752 15.208V13.208C18.4903 13.208 17.3654 13.5326 16.4654 14.2639L17.7266 15.8161ZM19.752 15.208C20.356 15.208 20.817 15.3189 21.1695 15.4988L22.0785 13.7172C21.3857 13.3638 20.5987 13.208 19.752 13.208V15.208ZM21.1913 15.5095C21.5718 15.6922 21.8119 15.9187 21.9647 16.1755L23.6833 15.1525C23.3028 14.5133 22.7429 14.0358 22.0567 13.7065L21.1913 15.5095ZM21.9737 16.1904C22.146 16.4686 22.24 16.7905 22.24 17.184H24.24C24.24 16.4468 24.0567 15.7554 23.6743 15.1376L21.9737 16.1904ZM22.24 17.184C22.24 17.6367 22.1142 17.9825 21.8831 18.2713L23.4449 19.5207C23.9818 18.8495 24.24 18.054 24.24 17.184H22.24ZM21.8746 18.2821C21.6469 18.5749 21.3589 18.7603 20.9696 18.849L21.4144 20.799C22.2411 20.6104 22.9345 20.1771 23.4534 19.5099L21.8746 18.2821ZM20.192 19.824V19.904H22.192V19.824H20.192ZM20.953 20.875C21.4583 20.9994 21.8092 21.2276 22.0624 21.5407L23.6176 20.2833C23.0602 19.5938 22.3124 19.1499 21.431 18.933L20.953 20.875ZM22.0624 21.5407C22.29 21.8223 22.448 22.2379 22.448 22.88H24.448C24.448 21.9007 24.2006 21.0044 23.6176 20.2833L22.0624 21.5407ZM22.448 22.88C22.448 23.3296 22.3473 23.7071 22.1614 24.0359L23.9026 25.0201C24.2714 24.3675 24.448 23.6464 24.448 22.88H22.448ZM22.1661 24.0277C21.9981 24.3185 21.7378 24.569 21.3368 24.7696L22.2312 26.5584C22.9395 26.2043 23.5112 25.6975 23.8979 25.0283L22.1661 24.0277ZM21.3368 24.7696C20.9519 24.962 20.4461 25.08 19.784 25.08V27.08C20.6792 27.08 21.5068 26.9206 22.2312 26.5584L21.3368 24.7696ZM19.784 25.08C18.832 25.08 18.1407 24.8365 17.6289 24.4225L16.3711 25.9775C17.3099 26.7368 18.4746 27.08 19.784 27.08V25.08ZM17.6357 24.4281C17.1541 24.0315 16.8488 23.4586 16.7809 22.5938L14.7871 22.7502C14.8899 24.0614 15.3952 25.1739 16.3643 25.9719L17.6357 24.4281ZM15.784 23.672H17.192V21.672H15.784V23.672ZM16.1987 22.7879C16.2995 23.6512 16.6648 24.4022 17.3051 24.9815L18.6469 23.4985C18.3912 23.2671 18.2339 22.9728 18.1853 22.5561L16.1987 22.7879ZM17.3051 24.9815C17.9777 25.5901 18.8345 25.848 19.768 25.848V23.848C19.2082 23.848 18.8703 23.7006 18.6469 23.4985L17.3051 24.9815ZM19.768 25.848C20.6783 25.848 21.5382 25.612 22.1711 24.9791L20.7569 23.5649C20.6218 23.7 20.351 23.848 19.768 23.848V25.848ZM22.1711 24.9791C22.7745 24.3757 23.056 23.6044 23.056 22.752H21.056C21.056 23.137 20.9428 23.3789 20.7569 23.5649L22.1711 24.9791ZM23.056 22.752C23.056 21.7121 22.6923 20.7738 21.8068 20.1894L20.7052 21.8586C20.8864 21.9782 21.056 22.1919 21.056 22.752H23.056ZM21.8068 20.1894C21.0325 19.6784 19.9932 19.496 18.84 19.496V21.496C19.8415 21.496 20.4128 21.6656 20.7052 21.8586L21.8068 20.1894ZM18.84 19.496H18.472V21.496H18.84V19.496ZM19.472 20.496V19.28H17.472V20.496H19.472ZM18.472 20.28H18.856V18.28H18.472V20.28ZM18.8669 20.2799C19.9222 20.2685 20.8777 20.0999 21.6051 19.651L20.5549 17.949C20.2796 18.1188 19.7525 18.2702 18.8451 18.2801L18.8669 20.2799ZM21.618 19.6429C22.4434 19.1161 22.832 18.2854 22.832 17.328H20.832C20.832 17.6932 20.7193 17.8439 20.542 17.9571L21.618 19.6429ZM22.832 17.328C22.832 16.5185 22.5529 15.7841 21.9468 15.23L20.5972 16.706C20.7378 16.8345 20.832 17.0068 20.832 17.328H22.832ZM21.9574 15.2398C21.3496 14.6678 20.5457 14.456 19.704 14.456V16.456C20.2276 16.456 20.4691 16.5855 20.5866 16.6962L21.9574 15.2398ZM19.704 14.456C18.8672 14.456 18.0868 14.6752 17.4599 15.2031L18.7481 16.7329C18.9319 16.5782 19.2181 16.456 19.704 16.456V14.456ZM17.4599 15.2031C16.8441 15.7216 16.4958 16.4172 16.3923 17.2154L18.3757 17.4726C18.4216 17.1188 18.5533 16.897 18.7481 16.7329L17.4599 15.2031ZM17.384 16.344H15.96V18.344H17.384V16.344Z" fill="#4574D2"/>
</svg>
