<svg width="40" height="40" viewBox="0 0 40 40" fill="none" xmlns="http://www.w3.org/2000/svg">
<circle cx="20" cy="20" r="20" fill="black" fill-opacity="0.5"/>
<path fill-rule="evenodd" clip-rule="evenodd" d="M29.1195 12.6797L30.5343 12.8512L29.8983 14.1741C29.5882 14.8192 29.2778 15.4643 28.967 16.1095C28.9302 16.2461 28.8654 16.3659 28.7697 16.5219C28.7296 16.587 28.5929 16.7943 28.5865 16.8043C28.5504 16.8605 28.5237 16.9048 28.5045 16.9403V19.4195C28.5045 25.7636 22.5895 29.795 17.0035 29.795C15.8605 29.795 14.9921 29.7382 13.9976 29.5129C12.3611 29.1422 11.1433 28.4054 10.586 27.1176L10.0122 25.7918L11.4066 25.6587C12.668 25.5383 13.7617 25.2888 14.6016 24.9548C12.2958 24.5699 11.0036 23.5188 11.0036 21.5446V20.5067H12.0036C12.2233 20.5067 12.4214 20.4881 12.5985 20.4542C10.868 19.3802 10.0012 17.6573 10.0012 15.2676C10.001 15.1658 10.001 15.1658 10.0004 15.0569C9.99394 13.8523 10.0563 13.2087 10.3739 12.3873C10.5775 11.8609 10.8718 11.3735 11.2679 10.927L12.0225 10.0762L12.7562 10.9465C15.1739 13.8145 17.5639 15.5545 20.0042 15.765C20.0146 13.1185 21.9415 11.1157 24.5043 11.1157C25.6991 11.1157 26.7828 11.5864 27.6345 12.4352C28.1006 12.5346 28.5957 12.6162 29.1195 12.6797ZM26.9086 14.3962L26.6021 14.3242L26.3904 14.083C25.8785 13.5 25.2359 13.1917 24.5043 13.1917C23.0414 13.1917 22.0041 14.2736 22.0041 15.7866C22.0041 16.0339 21.998 16.1892 21.9683 16.3934C21.8499 17.2083 21.4096 17.8626 20.5041 17.8626C17.5061 17.8626 14.8014 16.1955 12.1639 13.3482C12.0279 13.7772 11.9959 14.2182 12.0004 15.0452C12.001 15.1558 12.001 15.1558 12.0012 15.2676C12.0012 17.3934 12.8309 18.5562 14.7955 19.2043L15.4926 19.4343V20.1935C15.4926 21.1142 14.6522 21.9808 13.4227 22.369C13.9863 22.8129 15.139 23.0524 17.0039 23.0524H18.0039V24.0904C18.0039 25.5775 16.3576 26.7419 13.8707 27.35C14.6818 27.6079 15.7617 27.7191 17.0035 27.7191C21.618 27.7191 26.5045 24.3886 26.5045 19.4195V16.8246C26.5045 16.5196 26.5897 16.255 26.7311 15.9797C26.7865 15.8721 26.8474 15.7696 26.9225 15.6526C26.9367 15.6305 26.9892 15.5507 27.0309 15.4869L27.1101 15.3224C27.2386 15.0558 27.3669 14.7892 27.4952 14.5226C27.2958 14.4834 27.1003 14.4413 26.9086 14.3962Z" fill="white"/>
</svg>
