<svg width="40" height="40" viewBox="0 0 40 40" fill="none" xmlns="http://www.w3.org/2000/svg">
<circle cx="20" cy="20" r="20" fill="white"/>
<path d="M15.816 24.832C17.1707 23.744 18.232 22.8533 19 22.16C19.768 21.456 20.4133 20.7253 20.936 19.968C21.4693 19.2 21.736 18.448 21.736 17.712C21.736 17.0187 21.5653 16.4747 21.224 16.08C20.8933 15.6747 20.3547 15.472 19.608 15.472C18.8827 15.472 18.3173 15.7013 17.912 16.16C17.5173 16.608 17.304 17.2107 17.272 17.968H15.864C15.9067 16.7733 16.2693 15.8507 16.952 15.2C17.6347 14.5493 18.5147 14.224 19.592 14.224C20.6907 14.224 21.56 14.528 22.2 15.136C22.8507 15.744 23.176 16.5813 23.176 17.648C23.176 18.5333 22.9093 19.3973 22.376 20.24C21.8533 21.072 21.256 21.808 20.584 22.448C19.912 23.0773 19.0533 23.8133 18.008 24.656H23.512V25.872H15.816V24.832Z" fill="#4574D2"/>
<path d="M15.816 24.832L15.1898 24.0523L14.816 24.3526V24.832H15.816ZM19 22.16L19.6701 22.9023L19.6757 22.8972L19 22.16ZM20.936 19.968L20.1146 19.3976L20.113 19.4L20.936 19.968ZM21.224 16.08L20.4491 16.7121L20.4582 16.7233L20.4676 16.7342L21.224 16.08ZM17.912 16.16L17.1627 15.4978L17.1616 15.499L17.912 16.16ZM17.272 17.968V18.968H18.2306L18.2711 18.0102L17.272 17.968ZM15.864 17.968L14.8646 17.9323L14.8276 18.968H15.864V17.968ZM16.952 15.2L17.6419 15.9239L17.6419 15.9239L16.952 15.2ZM22.2 15.136L21.5112 15.861L21.5173 15.8667L22.2 15.136ZM22.376 20.24L21.531 19.7052L21.5292 19.7081L22.376 20.24ZM20.584 22.448L21.2676 23.1779L21.2737 23.1721L20.584 22.448ZM18.008 24.656L17.3804 23.8775L15.1741 25.656H18.008V24.656ZM23.512 24.656H24.512V23.656H23.512V24.656ZM23.512 25.872V26.872H24.512V25.872H23.512ZM15.816 25.872H14.816V26.872H15.816V25.872ZM16.4422 25.6117C17.8033 24.5185 18.8815 23.6142 19.6701 22.9023L18.3299 21.4177C17.5825 22.0925 16.5381 22.9695 15.1898 24.0523L16.4422 25.6117ZM19.6757 22.8972C20.4919 22.149 21.1886 21.3626 21.759 20.536L20.113 19.4C19.6381 20.0881 19.0441 20.763 18.3243 21.4228L19.6757 22.8972ZM21.7574 20.5384C22.3755 19.6482 22.736 18.7009 22.736 17.712H20.736C20.736 18.1951 20.5631 18.7518 20.1146 19.3976L21.7574 20.5384ZM22.736 17.712C22.736 16.8584 22.5243 16.0547 21.9804 15.4258L20.4676 16.7342C20.6064 16.8946 20.736 17.1789 20.736 17.712H22.736ZM21.9989 15.4479C21.4074 14.7228 20.5214 14.472 19.608 14.472V16.472C20.188 16.472 20.3793 16.6265 20.4491 16.7121L21.9989 15.4479ZM19.608 14.472C18.6542 14.472 17.7932 14.7843 17.1627 15.4978L18.6613 16.8222C18.8415 16.6184 19.1112 16.472 19.608 16.472V14.472ZM17.1616 15.499C16.5788 16.1606 16.3119 17.0026 16.2729 17.9258L18.2711 18.0102C18.2961 17.4187 18.4559 17.0554 18.6624 16.821L17.1616 15.499ZM17.272 16.968H15.864V18.968H17.272V16.968ZM16.8634 18.0037C16.8993 16.9969 17.1954 16.3495 17.6419 15.9239L16.2621 14.4761C15.3433 15.3519 14.914 16.5498 14.8646 17.9323L16.8634 18.0037ZM17.6419 15.9239C18.1119 15.4759 18.7321 15.224 19.592 15.224V13.224C18.2972 13.224 17.1574 13.6227 16.2621 14.4761L17.6419 15.9239ZM19.592 15.224C20.5001 15.224 21.0999 15.4702 21.5113 15.861L22.8888 14.411C22.0201 13.5858 20.8812 13.224 19.592 13.224V15.224ZM21.5173 15.8667C21.9259 16.2485 22.176 16.799 22.176 17.648H24.176C24.176 16.3637 23.7754 15.2395 22.8827 14.4053L21.5173 15.8667ZM22.176 17.648C22.176 18.3208 21.9763 19.0017 21.531 19.7052L23.221 20.7748C23.8424 19.7929 24.176 18.7459 24.176 17.648H22.176ZM21.5292 19.7081C21.0482 20.4738 20.5028 21.1444 19.8943 21.7239L21.2737 23.1721C22.0092 22.4716 22.6585 21.6702 23.2228 20.7719L21.5292 19.7081ZM19.9004 21.7181C19.2526 22.3248 18.4143 23.044 17.3804 23.8775L18.6356 25.4345C19.6923 24.5827 20.5714 23.8299 21.2676 23.1779L19.9004 21.7181ZM18.008 25.656H23.512V23.656H18.008V25.656ZM22.512 24.656V25.872H24.512V24.656H22.512ZM23.512 24.872H15.816V26.872H23.512V24.872ZM16.816 25.872V24.832H14.816V25.872H16.816Z" fill="#4574D2"/>
</svg>
