<svg width="40" height="40" viewBox="0 0 40 40" fill="none" xmlns="http://www.w3.org/2000/svg">
<circle cx="20" cy="20" r="20" fill="black" fill-opacity="0.5"/>
<path fill-rule="evenodd" clip-rule="evenodd" d="M20 31.8735C13.9249 31.8735 9 26.7616 9 20.4558C9 14.15 13.9249 9.03809 20 9.03809C26.0751 9.03809 31 14.15 31 20.4558C31 26.7616 26.0751 31.8735 20 31.8735ZM28.8678 22.0603C26.9343 21.594 25.1266 21.4741 23.4388 21.7031C24.2798 23.8572 24.892 25.9647 25.2746 28.0259C27.1353 26.6267 28.4598 24.5065 28.8678 22.0603ZM23.4278 29.0961C23.0688 26.8538 22.4112 24.5386 21.4539 22.1511C18.7665 23.0139 16.4144 24.8743 14.3702 27.7447C15.9118 29.0291 17.8694 29.7976 20 29.7976C21.2137 29.7976 22.3713 29.5482 23.4278 29.0961ZM12.9454 26.2572C11.7274 24.6637 11 22.6479 11 20.4558C11 20.25 11.0064 20.0457 11.019 19.8432C11.0566 19.8437 11.0958 19.8443 11.137 19.8449C14.2731 19.8914 16.2066 19.809 18.4373 19.3857C18.9913 19.2806 19.5271 19.1568 20.044 19.0136C20.2487 19.4257 20.4449 19.8359 20.6326 20.244C17.7219 21.2377 15.1516 23.2457 12.9454 26.2572ZM11.3769 17.7721C14.265 17.81 16.06 17.7265 18.0776 17.3436C18.413 17.28 18.7397 17.2091 19.0576 17.1308C18.1533 15.4887 17.1179 13.8152 15.9511 12.1105C13.7652 13.2553 12.0905 15.2983 11.3769 17.7721ZM17.8955 11.3708C19.0661 13.11 20.1064 14.8223 21.016 16.5078C22.9327 15.7384 24.4205 14.595 25.4343 13.0086C23.9243 11.8196 22.0415 11.114 20 11.114C19.2753 11.114 18.5706 11.2029 17.8955 11.3708ZM26.9011 14.459C28.1159 15.9636 28.8825 17.8714 28.9876 19.961C26.7255 19.455 24.5982 19.3803 22.6121 19.7339C22.4063 19.2755 22.1904 18.815 21.9645 18.3524C24.0254 17.4868 25.694 16.2155 26.9011 14.459Z" fill="white"/>
</svg>
